<?xml version="1.0" encoding="UTF-8" standalone="no"?>
<!-- Generator: Adobe Illustrator 17.1.0, SVG Export Plug-In . SVG Version: 6.00 Build 0)  -->

<svg
   version="1.1"
   id="Capa_1"
   x="0px"
   y="0px"
   viewBox="0 0 310.284 310.284"
   style="enable-background:new 0 0 310.284 310.284;"
   xml:space="preserve"
   sodipodi:docname="quotation-mark-svgrepo-com.svg"
   inkscape:version="1.2.1 (9c6d41e410, 2022-07-14)"
   xmlns:inkscape="http://www.inkscape.org/namespaces/inkscape"
   xmlns:sodipodi="http://sodipodi.sourceforge.net/DTD/sodipodi-0.dtd"
   xmlns="http://www.w3.org/2000/svg"
   xmlns:svg="http://www.w3.org/2000/svg"><defs
   id="defs37" /><sodipodi:namedview
   id="namedview35"
   pagecolor="#ffffff"
   bordercolor="#000000"
   borderopacity="0.25"
   inkscape:showpageshadow="2"
   inkscape:pageopacity="0.0"
   inkscape:pagecheckerboard="0"
   inkscape:deskcolor="#d1d1d1"
   showgrid="false"
   inkscape:zoom="2.5911746"
   inkscape:cx="155.33496"
   inkscape:cy="155.33496"
   inkscape:window-width="1920"
   inkscape:window-height="991"
   inkscape:window-x="-9"
   inkscape:window-y="-9"
   inkscape:window-maximized="1"
   inkscape:current-layer="Capa_1" />
<path
   d="M155.142,0C69.597,0,0,69.597,0,155.142s69.597,155.142,155.142,155.142s155.142-69.597,155.142-155.142  S240.688,0,155.142,0z M79.171,231.401c-1.746,1.182-6.129,2.222-8.693-0.625l-4.731-5.95c-2.288-3.869,0.483-7.457,2.277-8.945  c8.529-7.075,14.731-12.548,18.601-16.419c7.589-7.981,13.199-15.97,16.903-23.935c0.847-1.821-1.315-2.977-2.438-3.345  c-27.967-9.166-41.955-25.325-41.955-48.474c0-13.639,4.53-24.722,13.585-33.242c9.059-8.525,20.407-12.785,34.041-12.785  c12.146,0,22.909,5.539,32.283,16.621c9.165,10.438,13.744,21.735,13.744,33.881C152.789,163.78,128.251,198.185,79.171,231.401z   M185.61,231.401c-1.746,1.182-6.129,2.222-8.693-0.625l-4.731-5.95c-2.288-3.869,0.483-7.457,2.277-8.945  c8.528-7.075,14.731-12.548,18.601-16.419c7.589-7.981,13.199-15.97,16.904-23.935c0.847-1.821-1.315-2.977-2.438-3.345  c-27.967-9.166-41.955-25.325-41.955-48.474c0-13.639,4.53-24.722,13.585-33.242c9.06-8.525,20.407-12.785,34.041-12.785  c12.146,0,22.909,5.539,32.283,16.621c9.164,10.438,13.744,21.735,13.744,33.881C259.228,163.78,234.69,198.185,185.61,231.401z"
   id="path2"
   style="fill:#ffffff" />
<g
   id="g4">
</g>
<g
   id="g6">
</g>
<g
   id="g8">
</g>
<g
   id="g10">
</g>
<g
   id="g12">
</g>
<g
   id="g14">
</g>
<g
   id="g16">
</g>
<g
   id="g18">
</g>
<g
   id="g20">
</g>
<g
   id="g22">
</g>
<g
   id="g24">
</g>
<g
   id="g26">
</g>
<g
   id="g28">
</g>
<g
   id="g30">
</g>
<g
   id="g32">
</g>
<path
   style="fill:#126bfb;stroke-width:0.385925"
   d="m 73.518783,232.28561 c -1.751546,-0.62916 -2.621499,-1.39273 -5.035235,-4.41951 -3.748356,-4.70037 -4.07449,-5.78662 -2.632009,-8.76638 0.556595,-1.14978 1.955858,-2.65751 4.321483,-4.65648 6.923482,-5.85038 13.243661,-11.50405 16.312872,-14.59256 6.185062,-6.22396 12.192108,-14.40137 15.888176,-21.62864 l 1.81488,-3.54881 -0.80598,-1.08229 c -0.58779,-0.78931 -1.84,-1.45649 -4.625652,-2.46454 C 77.59154,163.46708 65.178499,152.05104 60.987356,136.3901 58.001461,125.23279 59.156354,112.49723 64.046439,102.65615 69.223616,92.2373 78.46641,84.346989 90.033642,80.47161 96.46686,78.316284 104.96669,77.374462 110.9859,78.15 c 9.7678,1.25852 17.62461,5.537464 25.63168,13.959428 8.7936,9.249242 13.86197,18.909342 15.41746,29.385072 2.29636,15.4652 -2.88267,35.45976 -13.65089,52.70162 -9.20068,14.73195 -24.30923,30.68443 -42.17478,44.53059 -6.011557,4.65908 -16.388573,12.08817 -17.890956,12.80845 -1.35759,0.65087 -3.948894,1.05603 -4.799631,0.75045 z"
   id="path335" /><path
   style="fill:#126bfb;stroke-width:0.385925"
   d="m 179.35803,232.1049 c -1.2912,-0.39012 -4.48486,-3.86014 -6.70244,-7.28245 -2.50073,-3.85927 -1.46751,-5.72128 7.38508,-13.30891 15.14377,-12.97987 23.0823,-22.14814 28.80185,-33.26348 2.3791,-4.62353 2.12436,-5.07502 -4.10911,-7.2827 -8.66266,-3.06801 -17.02023,-7.65682 -23.09575,-12.68097 -12.1801,-10.07234 -17.76301,-25.50139 -15.27953,-42.22681 1.4847,-9.9989 5.36263,-17.773592 12.27381,-24.60722 6.84413,-6.767324 15.20421,-11.065902 24.68476,-12.692378 15.98925,-2.743105 27.40525,0.929898 38.85147,12.500137 15.08103,15.244441 19.58817,30.770971 15.22097,52.434311 -4.99108,24.75805 -22.62009,49.35552 -52.46277,73.20042 -6.2253,4.97415 -17.86238,13.43613 -19.93622,14.49677 -1.79266,0.91682 -4.02336,1.19933 -5.63212,0.71328 z"
   id="path337" /></svg>
