<?xml version="1.0" encoding="UTF-8" standalone="no"?>
<svg
   width="76"
   height="75"
   viewBox="0 0 76 75"
   fill="none"
   version="1.1"
   id="svg4"
   sodipodi:docname="javascript.svg"
   inkscape:version="1.2.1 (9c6d41e410, 2022-07-14)"
   xmlns:inkscape="http://www.inkscape.org/namespaces/inkscape"
   xmlns:sodipodi="http://sodipodi.sourceforge.net/DTD/sodipodi-0.dtd"
   xmlns="http://www.w3.org/2000/svg"
   xmlns:svg="http://www.w3.org/2000/svg">
  <defs
     id="defs8" />
  <sodipodi:namedview
     id="namedview6"
     pagecolor="#ffffff"
     bordercolor="#000000"
     borderopacity="0.25"
     inkscape:showpageshadow="2"
     inkscape:pageopacity="0.0"
     inkscape:pagecheckerboard="0"
     inkscape:deskcolor="#d1d1d1"
     showgrid="false"
     inkscape:zoom="13.693333"
     inkscape:cx="38.157255"
     inkscape:cy="37.682572"
     inkscape:window-width="1718"
     inkscape:window-height="1341"
     inkscape:window-x="0"
     inkscape:window-y="0"
     inkscape:window-maximized="0"
     inkscape:current-layer="svg4" />
  <path
     d="M0.5 0C25.5169 0 50.4831 0 75.5 0C75.5 25.0169 75.5 50.0338 75.5 75C50.5338 75 25.5169 75 0.5 75C0.5 49.9325 0.5 24.9662 0.5 0ZM67.5999 39.7029C66.0807 36.9683 64.0044 35.0945 61.0165 34.4362C58.8896 33.9298 56.7627 33.9298 54.6357 34.3856C47.7485 35.8035 44.8113 44.1087 49.2677 49.6286C50.8376 51.553 52.9139 52.7178 55.0915 53.7306C57.0159 54.6421 58.9909 55.503 60.9153 56.4652C62.2319 57.1236 62.789 58.339 62.6371 59.8076C62.4851 61.2762 61.4723 62.0864 60.2063 62.5422C57.3704 63.555 54.0787 62.6435 52.1543 60.2633C51.7492 59.7569 51.344 59.1999 50.9389 58.6428C49.0145 59.7569 47.1408 60.8204 45.267 61.9345C46.4318 64.2134 48.0523 66.0365 50.2806 67.2519C54.0787 69.3282 58.0793 69.632 62.1813 68.6192C64.8653 67.9608 67.1442 66.5935 68.5621 64.1121C71.1955 59.4024 69.6762 53.528 65.0172 50.6415C62.9409 49.3754 60.6114 48.5145 58.4338 47.4004C57.3704 46.8433 56.2562 46.3369 55.3447 45.628C53.7242 44.3113 54.028 41.6779 55.8511 40.6651C57.6236 39.6523 60.105 40.26 61.4723 42.0324C61.7762 42.3869 61.9787 42.792 62.2826 43.1972C64.0044 42.0324 65.7768 40.8677 67.5999 39.7029ZM20.2502 62.6941C21.263 64.8717 22.7316 66.5935 24.8079 67.7076C27.4919 69.1762 30.4291 69.4294 33.417 68.9737C36.1009 68.5685 38.3292 67.3531 39.7978 64.9223C41.0132 62.8967 41.3677 60.6685 41.3677 58.2883C41.3677 50.5908 41.3677 42.8933 41.3677 35.1958C41.3677 34.9932 41.3677 34.74 41.3677 34.4868C38.9875 34.4868 36.7086 34.4868 34.3285 34.4868C34.3285 34.7907 34.3285 35.0439 34.3285 35.3477C34.3285 42.944 34.3285 50.4895 34.3285 58.0858C34.3285 58.7947 34.2779 59.5544 34.1766 60.2633C33.974 61.4281 33.3663 62.289 32.2016 62.6435C30.024 63.3018 28.2515 62.6435 26.9855 60.7698C26.6816 60.2633 26.3778 59.7569 26.0233 59.2505C24.0483 60.4153 22.1745 61.5294 20.2502 62.6941Z"
     fill="white"
     id="path2"
     style="fill:#f7e018;fill-opacity:1" />
  <path
     style="fill:#000000;stroke:#585bc6;stroke-width:0.0730282"
     d="m 29.320838,69.075529 c -0.701135,-0.08642 -1.908926,-0.349676 -2.506877,-0.546421 -0.844658,-0.277918 -2.102468,-0.889321 -2.860698,-1.390543 -1.220711,-0.806939 -2.652631,-2.45634 -3.371189,-3.883204 -0.210892,-0.418777 -0.238481,-0.523088 -0.158276,-0.598431 0.216922,-0.203768 5.544067,-3.326196 5.607699,-3.286869 0.0378,0.02336 0.306142,0.427696 0.596322,0.898524 0.911304,1.478629 1.813486,2.229045 3.05816,2.543714 0.65534,0.165677 1.737909,0.105776 2.497528,-0.138195 1.331944,-0.427786 1.91845,-1.279815 2.100209,-3.051015 0.04948,-0.482141 0.07607,-5.002097 0.07607,-12.929267 V 34.505843 h 3.470583 3.470582 l -0.02409,13.017284 c -0.02207,11.923506 -0.03457,13.069441 -0.148785,13.638023 -0.783478,3.900171 -2.8218,6.368929 -6.118277,7.410285 -1.123265,0.35484 -2.140994,0.490238 -3.863258,0.513965 -0.863559,0.0119 -1.685127,0.0075 -1.825706,-0.0099 z"
     id="path371" />
  <path
     style="fill:#000000;stroke:#585bc6;stroke-width:0.0730282"
     d="M 55.757061,69.013459 C 53.302364,68.655492 51.128345,67.832368 49.221033,66.538797 47.952932,65.67875 46.497525,64.047509 45.636012,62.520655 l -0.315208,-0.558643 0.270465,-0.170076 c 0.148756,-0.09354 1.338503,-0.786389 2.643883,-1.539658 1.30538,-0.75327 2.443937,-1.414111 2.530126,-1.468535 0.148763,-0.09394 0.185314,-0.05997 0.72089,0.669955 1.041867,1.419936 1.756454,2.071006 2.941666,2.680196 1.622932,0.834174 3.394844,1.052802 5.126695,0.632558 0.796027,-0.19316 1.702144,-0.632072 2.166156,-1.049259 1.26404,-1.13648 1.305854,-3.430534 0.08479,-4.651603 -0.41603,-0.416029 -1.194033,-0.824649 -4.295733,-2.256188 -3.906519,-1.802991 -5.006386,-2.391995 -6.293933,-3.370544 -2.083747,-1.583671 -3.510364,-3.857247 -3.890275,-6.19987 -0.682128,-4.206159 1.455517,-8.324391 5.253184,-10.120402 2.409649,-1.139583 6.057925,-1.339623 9.016267,-0.494374 0.810695,0.23163 2.240093,0.938623 2.888954,1.428903 0.680787,0.514404 1.439591,1.279727 1.977609,1.994598 0.463811,0.616273 1.053063,1.525893 1.053063,1.6256 0,0.03249 -0.106804,0.120902 -0.237341,0.196472 -0.130538,0.07557 -1.30198,0.840255 -2.603204,1.6993 -1.301224,0.859045 -2.388813,1.535496 -2.416866,1.503224 -0.02805,-0.03227 -0.225906,-0.315371 -0.439676,-0.629108 -1.396898,-2.050158 -3.806404,-2.847853 -5.7658,-1.908838 -1.252168,0.600085 -1.940875,1.902785 -1.746922,3.304331 0.119831,0.865932 0.575302,1.537051 1.443112,2.126369 0.714851,0.485445 2.778984,1.550042 4.956027,2.556117 3.112685,1.438463 4.040368,1.931939 5.057993,2.690575 2.021622,1.507115 3.474571,3.866415 3.906524,6.343419 0.142675,0.818161 0.142006,2.451274 -0.0014,3.28604 -0.312012,1.816885 -1.100611,3.488396 -2.241934,4.751991 -1.59255,1.763162 -3.675256,2.7713 -6.848247,3.314908 -1.178175,0.201849 -3.769693,0.258491 -4.819864,0.105346 z"
     id="path373" />
</svg>
